<?xml version="1.0" encoding="UTF-8" standalone="no"?>
<!-- Created with Inkscape (http://www.inkscape.org/) -->

<svg
   xmlns:dc="http://purl.org/dc/elements/1.1/"
   xmlns:cc="http://creativecommons.org/ns#"
   xmlns:rdf="http://www.w3.org/1999/02/22-rdf-syntax-ns#"
   xmlns:svg="http://www.w3.org/2000/svg"
   xmlns="http://www.w3.org/2000/svg"
   xmlns:sodipodi="http://sodipodi.sourceforge.net/DTD/sodipodi-0.dtd"
   xmlns:inkscape="http://www.inkscape.org/namespaces/inkscape"
   width="200mm"
   height="200mm"
   viewBox="0 0 200 200"
   version="1.1"
   id="svg8"
   inkscape:version="0.92.2 (5c3e80d, 2017-08-06)"
   sodipodi:docname="logo.svg">
  <defs
     id="defs2" />
  <sodipodi:namedview
     id="base"
     pagecolor="#ffffff"
     bordercolor="#666666"
     borderopacity="1.0"
     inkscape:pageopacity="0.0"
     inkscape:pageshadow="2"
     inkscape:zoom="0.7071068"
     inkscape:cx="-420.44001"
     inkscape:cy="740.61383"
     inkscape:document-units="mm"
     inkscape:current-layer="layer1"
     showgrid="false"
     inkscape:pagecheckerboard="true"
     showguides="true"
     inkscape:window-width="1920"
     inkscape:window-height="1017"
     inkscape:window-x="-8"
     inkscape:window-y="-8"
     inkscape:window-maximized="1" />
  <metadata
     id="metadata5">
    <rdf:RDF>
      <cc:Work
         rdf:about="">
        <dc:format>image/svg+xml</dc:format>
        <dc:type
           rdf:resource="http://purl.org/dc/dcmitype/StillImage" />
        <dc:title />
      </cc:Work>
    </rdf:RDF>
  </metadata>
  <g
     inkscape:label="Layer 1"
     inkscape:groupmode="layer"
     id="layer1"
     transform="translate(0,-97)">
    <path
       style="opacity:1;fill:#00558c;fill-opacity:1;stroke:none;stroke-width:42.99061203;stroke-miterlimit:4;stroke-dasharray:none;stroke-opacity:1"
       d="M 376.0625 11.337891 A 368.50394 368.50394 0 0 0 7.5585938 379.8418 A 368.50394 368.50394 0 0 0 376.0625 748.3457 A 368.50394 368.50394 0 0 0 693.04102 566.92969 L 637.33789 566.92969 A 321.25984 321.25984 0 0 1 377.95312 699.21289 A 321.25984 321.25984 0 0 1 56.693359 377.95312 A 321.25984 321.25984 0 0 1 377.95312 56.693359 A 321.25984 321.25984 0 0 1 637.27148 188.97656 L 690.75195 188.97656 A 368.50394 368.50394 0 0 0 376.0625 11.337891 z "
       id="path4545"
       transform="matrix(0.26458333,0,0,0.26458333,0,97)" />
    <circle
       style="opacity:1;fill:#ffffff;fill-opacity:1;stroke:none;stroke-width:7.76554918;stroke-miterlimit:4;stroke-dasharray:none;stroke-opacity:1"
       id="path4846"
       cx="100"
       cy="197"
       r="80" />
    <path
       style="opacity:1;fill:#8cc63f;fill-opacity:1;stroke:none;stroke-width:6.25763369;stroke-miterlimit:4;stroke-dasharray:none;stroke-opacity:1"
       d="M 99.99977,117.01907 A 79.999998,79.999998 0 0 0 20,197.01936 79.999998,79.999998 0 0 0 55.03093,263.01584 v -61.67633 h 19.99982 v 71.50726 a 79.999998,79.999998 0 0 0 5.29167,1.64382 v -88.1512 h 19.9998 v 88.1512 h 5.3e-4 V 277 a 79.999998,79.999998 0 0 0 5.29167,-0.32762 v -0.3328 h -5.3e-4 V 171.33979 h 20.00033 v 101.32146 a 79.999998,79.999998 0 0 0 5.29116,-1.93683 V 156.33967 h 20.00033 v 102.31158 a 79.999998,79.999998 0 0 0 29.09435,-61.63189 79.999998,79.999998 0 0 0 -80.00029,-80.00029 z"
       id="path815"
       inkscape:connector-curvature="0" />
  </g>
</svg>
